<?xml version="1.0" standalone="no"?>
<!DOCTYPE svg PUBLIC "-//W3C//DTD SVG 20010904//EN"
 "http://www.w3.org/TR/2001/REC-SVG-20010904/DTD/svg10.dtd">
<svg version="1.0" xmlns="http://www.w3.org/2000/svg"
 width="260.000000pt" height="260.000000pt" viewBox="0 0 260.000000 260.000000"
 preserveAspectRatio="xMidYMid meet">
<metadata>
Created by potrace 1.14, written by Peter Selinger 2001-2017
</metadata>
<g transform="translate(0.000000,260.000000) scale(0.100000,-0.100000)"
fill="#000000" stroke="none">
<path d="M1245 2073 c-112 -12 -262 -70 -325 -126 -50 -44 -98 -113 -119 -172
-39 -105 -33 -269 13 -361 26 -51 97 -125 157 -164 31 -20 121 -62 200 -94
163 -66 242 -110 260 -142 17 -32 14 -72 -6 -94 -60 -66 -372 -44 -559 39 -27
11 -51 20 -52 18 -8 -7 -74 -342 -71 -352 3 -6 38 -21 78 -34 41 -12 85 -27
99 -31 95 -32 356 -45 494 -24 228 34 375 139 422 302 33 114 23 248 -26 349
-57 115 -167 191 -417 287 -151 58 -199 91 -209 143 -6 33 -4 39 26 64 71 59
290 51 450 -16 30 -13 56 -22 57 -21 2 2 18 70 73 309 8 38 7 39 -28 54 -102
43 -388 79 -517 66z"/>
</g>
</svg>
