<?xml version="1.0" encoding="UTF-8" standalone="no"?>
<svg
   version="1.1"
   width="6.7877059cm"
   height="5.6092863cm"
   viewBox="0 0 26723.252 22083.805"
   id="svg7022"
   xmlns="http://www.w3.org/2000/svg"
   xmlns:svg="http://www.w3.org/2000/svg"
   xmlns:rdf="http://www.w3.org/1999/02/22-rdf-syntax-ns#"
   xmlns:cc="http://creativecommons.org/ns#"
   xmlns:dc="http://purl.org/dc/elements/1.1/">
  <defs
     id="defs7026" />
  <title
     id="title5532">SVG Picture created as FetsAndCrosses-EndState_Detect-sheet5ED298A3-sheet5ED2645B.svg date 2023/03/15 13:41:54 </title>
  <desc
     id="desc5534">Picture generated by Eeschema-SVG </desc>
  <rect
     style="fill:#ffffff;stroke-width:74.2808"
     id="rect7510"
     width="26723.252"
     height="22083.805"
     x="0"
     y="0" />
  <g
     style="fill:#000000;fill-opacity:1;stroke:#000000;stroke-linecap:round;stroke-linejoin:round;stroke-opacity:1"
     id="g5536"
     transform="translate(-27868.263,-27098.843)" />
  <g
     style="fill:#840000;fill-opacity:0;stroke:#840000;stroke-width:0;stroke-linecap:round;stroke-linejoin:round;stroke-opacity:1"
     id="g5538"
     transform="translate(-27868.263,-27098.843)" />
  <text
     x="70079.609"
     y="68802.047"
     textLength="60"
     font-size="787.402px"
     lengthAdjust="spacingAndGlyphs"
     text-anchor="start"
     opacity="0"
     id="text6486"
     style="fill:#840000;fill-opacity:0;stroke:#840000;stroke-width:60;stroke-linecap:round;stroke-linejoin:round;stroke-opacity:1"
     transform="translate(-27868.263,-27098.843)" />
  <g
     class="stroked-text"
     id="g6490"
     style="fill:#840000;fill-opacity:0;stroke:#840000;stroke-width:60;stroke-linecap:round;stroke-linejoin:round;stroke-opacity:1"
     transform="translate(-27868.263,-27098.843)">
    <desc
       id="desc6488" />
  </g>
  <text
     x="70079.609"
     y="67620.945"
     textLength="60"
     font-size="787.402px"
     lengthAdjust="spacingAndGlyphs"
     text-anchor="start"
     opacity="0"
     id="text6492"
     style="fill:#840000;fill-opacity:0;stroke:#840000;stroke-width:60;stroke-linecap:round;stroke-linejoin:round;stroke-opacity:1"
     transform="translate(-27868.263,-27098.843)" />
  <g
     class="stroked-text"
     id="g6496"
     style="fill:#840000;fill-opacity:0;stroke:#840000;stroke-width:60;stroke-linecap:round;stroke-linejoin:round;stroke-opacity:1"
     transform="translate(-27868.263,-27098.843)">
    <desc
       id="desc6494" />
  </g>
  <g
     id="g6650"
     style="fill:#840000;fill-opacity:0;stroke:#840000;stroke-width:60;stroke-linecap:round;stroke-linejoin:round;stroke-opacity:1"
     transform="translate(-27868.263,-27098.843)">
    <path
       style="fill:none;fill-opacity:0;stroke:#840000;stroke-width:60;stroke-linecap:round;stroke-linejoin:round;stroke-opacity:1"
       d="M 40600,33500 H 39500"
       id="path6648" />
  </g>
  <g
     style="fill:#840000;fill-opacity:0;stroke:#840000;stroke-width:100;stroke-linecap:round;stroke-linejoin:round;stroke-opacity:1"
     id="g6660"
     transform="translate(-27868.263,-27098.843)">
    <path
       style="fill:none;fill-opacity:0;stroke:#840000;stroke-width:100;stroke-linecap:round;stroke-linejoin:round;stroke-opacity:1"
       d="M 40600,34250 V 32750"
       id="path6652" />
    <path
       style="fill:none;fill-opacity:0;stroke:#840000;stroke-width:100;stroke-linecap:round;stroke-linejoin:round;stroke-opacity:1"
       d="m 40800,33000 v -400"
       id="path6654" />
    <path
       style="fill:none;fill-opacity:0;stroke:#840000;stroke-width:100;stroke-linecap:round;stroke-linejoin:round;stroke-opacity:1"
       d="m 40800,33700 v -400"
       id="path6656" />
    <path
       style="fill:none;fill-opacity:0;stroke:#840000;stroke-width:100;stroke-linecap:round;stroke-linejoin:round;stroke-opacity:1"
       d="m 40800,34400 v -400"
       id="path6658" />
  </g>
  <g
     style="fill:#840000;fill-opacity:0;stroke:#840000;stroke-width:60;stroke-linecap:round;stroke-linejoin:round;stroke-opacity:1"
     id="g6668"
     transform="translate(-27868.263,-27098.843)">
    <path
       style="fill:none;fill-opacity:0;stroke:#840000;stroke-width:60;stroke-linecap:round;stroke-linejoin:round;stroke-opacity:1"
       d="m 41500,34500 v -300"
       id="path6662" />
    <path
       style="fill:none;fill-opacity:0;stroke:#840000;stroke-width:60;stroke-linecap:round;stroke-linejoin:round;stroke-opacity:1"
       d="m 41500,32500 v 1000 h -700"
       id="path6664" />
    <path
       style="fill:none;fill-opacity:0;stroke:#840000;stroke-width:60;stroke-linecap:round;stroke-linejoin:round;stroke-opacity:1"
       d="m 40800,34200 h 1000 v -1400 h -1000"
       id="path6666" />
  </g>
  <g
     style="fill:#840000;fill-opacity:1;stroke:#840000;stroke-width:60;stroke-linecap:round;stroke-linejoin:round;stroke-opacity:1"
     id="g6672"
     transform="translate(-27868.263,-27098.843)">
    <path
       style="fill:#840000;fill-opacity:1;fill-rule:evenodd;stroke:#840000;stroke-width:60;stroke-linecap:round;stroke-linejoin:round;stroke-opacity:1"
       d="m 41400,33500 -400,150 v -300 z"
       id="path6670" />
  </g>
  <g
     style="fill:#840000;fill-opacity:0;stroke:#840000;stroke-width:60;stroke-linecap:round;stroke-linejoin:round;stroke-opacity:1"
     id="g6678"
     transform="translate(-27868.263,-27098.843)">
    <path
       style="fill:none;fill-opacity:0;stroke:#840000;stroke-width:60;stroke-linecap:round;stroke-linejoin:round;stroke-opacity:1"
       d="m 41600,33300 50,50 h 300 l 50,50"
       id="path6674" />
    <path
       style="fill:none;fill-opacity:0;stroke:#840000;stroke-width:60;stroke-linecap:round;stroke-linejoin:round;stroke-opacity:1"
       d="m 41800,33350 -150,250 h 300 z"
       id="path6676" />
  </g>
  <g
     style="fill:#840000;fill-opacity:0;stroke:#840000;stroke-width:100;stroke-linecap:round;stroke-linejoin:round;stroke-opacity:1"
     id="g6682"
     transform="translate(-27868.263,-27098.843)">
    <circle
       cx="41150"
       cy="33500"
       r="1100"
       id="circle6680" />
  </g>
  <g
     style="fill:#840000;fill-opacity:1;stroke:#840000;stroke-width:60;stroke-linecap:round;stroke-linejoin:round;stroke-opacity:1"
     id="g6688"
     transform="translate(-27868.263,-27098.843)">
    <circle
       cx="41500"
       cy="32800"
       r="100"
       id="circle6684" />
    <circle
       cx="41500"
       cy="34200"
       r="100"
       id="circle6686" />
  </g>
  <g
     style="fill:#840000;fill-opacity:0;stroke:#840000;stroke-width:60;stroke-linecap:round;stroke-linejoin:round;stroke-opacity:1"
     id="g6692"
     transform="translate(-27868.263,-27098.843)">
    <path
       d="M 39500,33500 H 38500"
       id="path6690" />
  </g>
  <g
     style="fill:#a90000;fill-opacity:0;stroke:#a90000;stroke-width:60;stroke-linecap:round;stroke-linejoin:round;stroke-opacity:1"
     id="g6704"
     transform="translate(-27868.263,-27098.843)">
    <text
       x="39000"
       y="34100"
       textLength="536.18109"
       font-size="666.654px"
       lengthAdjust="spacingAndGlyphs"
       text-anchor="middle"
       opacity="0"
       id="text6694">1</text>
    <g
       class="stroked-text"
       id="g6702">
      <desc
         id="desc6696">1</desc>
      <path
         d="m 39142,34076 h -285"
         id="path6698" />
      <path
         d="m 39000,34076 v -500 l -48,71 -48,48 -47,24"
         id="path6700" />
    </g>
  </g>
  <g
     style="fill:#840000;fill-opacity:0;stroke:#840000;stroke-width:60;stroke-linecap:round;stroke-linejoin:round;stroke-opacity:1"
     id="g6708"
     transform="translate(-27868.263,-27098.843)">
    <path
       d="M 41500,32500 V 31500"
       id="path6706" />
  </g>
  <g
     style="fill:#a90000;fill-opacity:0;stroke:#a90000;stroke-width:60;stroke-linecap:round;stroke-linejoin:round;stroke-opacity:1"
     id="g6720"
     transform="translate(-27868.263,-27098.843)">
    <g
       transform="rotate(-90,41600,32000)"
       id="g6712">
      <text
         x="41600"
         y="32500"
         textLength="536.18109"
         font-size="666.654px"
         lengthAdjust="spacingAndGlyphs"
         text-anchor="middle"
         opacity="0"
         id="text6710">2</text>
    </g>
    <g
       class="stroked-text"
       id="g6718">
      <desc
         id="desc6714">2</desc>
      <path
         d="m 41623,32142 -23,-23 -24,-48 v -119 l 24,-48 23,-24 48,-23 h 48 l 71,23 286,286 v -309"
         id="path6716" />
    </g>
  </g>
  <g
     style="fill:#840000;fill-opacity:0;stroke:#840000;stroke-width:60;stroke-linecap:round;stroke-linejoin:round;stroke-opacity:1"
     id="g6724"
     transform="translate(-27868.263,-27098.843)">
    <path
       d="m 41500,34500 v 1000"
       id="path6722" />
  </g>
  <g
     style="fill:#a90000;fill-opacity:0;stroke:#a90000;stroke-width:60;stroke-linecap:round;stroke-linejoin:round;stroke-opacity:1"
     id="g6736"
     transform="translate(-27868.263,-27098.843)">
    <g
       transform="rotate(-90,41600,35000)"
       id="g6728">
      <text
         x="41600"
         y="35500"
         textLength="536.18109"
         font-size="666.654px"
         lengthAdjust="spacingAndGlyphs"
         text-anchor="middle"
         opacity="0"
         id="text6726">3</text>
    </g>
    <g
       class="stroked-text"
       id="g6734">
      <desc
         id="desc6730">3</desc>
      <path
         d="m 41576,35166 v -309 l 190,166 v -71 l 24,-48 24,-24 47,-23 h 119 l 48,23 24,24 24,48 v 143 l -24,47 -24,24"
         id="path6732" />
    </g>
  </g>
  <g
     style="fill:#006464;fill-opacity:0;stroke:#006464;stroke-width:60;stroke-linecap:round;stroke-linejoin:round;stroke-opacity:1"
     id="g6774"
     transform="translate(-27868.263,-27098.843)">
    <text
       x="43547.441"
       y="33290"
       textLength="2012.3622"
       font-size="666.654px"
       lengthAdjust="spacingAndGlyphs"
       text-anchor="middle"
       opacity="0"
       id="text6738">Q427</text>
    <g
       class="stroked-text"
       id="g6754">
      <desc
         id="desc6740">Q427</desc>
      <path
         d="m 43023,33313 -48,-23 -47,-48 -72,-72 -47,-23 h -48"
         id="path6742" />
      <path
         d="m 42785,33266 -48,-24 -47,-48 -24,-95 v -167 l 24,-95 47,-47 48,-24 h 95 l 48,24 47,47 24,95 v 167 l -24,95 -47,48 -48,24 h -95"
         id="path6744" />
      <path
         d="m 43428,32932 v 334"
         id="path6746" />
      <path
         d="m 43309,32742 -119,357 h 309"
         id="path6748" />
      <path
         d="m 43666,32813 24,-23 47,-24 h 119 l 48,24 24,23 24,48 v 48 l -24,71 -286,286 h 310"
         id="path6750" />
      <path
         d="m 44118,32766 h 334 l -215,500"
         id="path6752" />
    </g>
    <text
       x="43773.621"
       y="34200"
       textLength="2464.7637"
       font-size="666.654px"
       lengthAdjust="spacingAndGlyphs"
       text-anchor="middle"
       opacity="0"
       id="text6756">BSS84</text>
    <g
       class="stroked-text"
       id="g6772">
      <desc
         id="desc6758">BSS84</desc>
      <path
         d="m 42856,33914 72,24 24,23 23,48 v 71 l -23,48 -24,24 -48,24 h -190 v -500 h 166 l 48,24 24,23 24,48 v 48 l -24,47 -24,24 -48,24 h -166"
         id="path6760" />
      <path
         d="m 43166,34152 71,24 h 119 l 48,-24 24,-24 24,-48 v -47 l -24,-48 -24,-24 -48,-23 -95,-24 -47,-24 -24,-24 -24,-47 v -48 l 24,-48 24,-23 47,-24 h 119 l 72,24"
         id="path6762" />
      <path
         d="m 43642,34152 72,24 h 119 l 47,-24 24,-24 24,-48 v -47 l -24,-48 -24,-24 -47,-23 -96,-24 -47,-24 -24,-24 -24,-47 v -48 l 24,-48 24,-23 47,-24 h 119 l 72,24"
         id="path6764" />
      <path
         d="m 44214,33890 -48,-24 -24,-24 -24,-47 v -24 l 24,-48 24,-23 48,-24 h 95 l 47,24 24,23 24,48 v 24 l -24,47 -24,24 -47,24 h -95 l -48,24 -24,24 -24,47 v 95 l 24,48 24,24 48,24 h 95 l 47,-24 24,-24 24,-48 v -95 l -24,-47 -24,-24 -47,-24"
         id="path6766" />
      <path
         d="m 44833,33842 v 334"
         id="path6768" />
      <path
         d="m 44714,33652 -119,357 h 309"
         id="path6770" />
    </g>
  </g>
  <g
     style="fill:#006464;fill-opacity:0;stroke:#006464;stroke-width:60;stroke-linecap:round;stroke-linejoin:round;stroke-opacity:1"
     id="g6804"
     transform="translate(-27868.263,-27098.843)">
    <g
       id="g6778" />
    <g
       style="fill:#840000;fill-opacity:0;stroke:#840000;stroke-width:60;stroke-linecap:round;stroke-linejoin:round;stroke-opacity:1"
       id="g6786">
      <path
         style="fill:none;fill-opacity:0;stroke:#840000;stroke-width:60;stroke-linecap:round;stroke-linejoin:round;stroke-opacity:1"
         d="m 41200,29500 300,-500"
         id="path6780" />
      <path
         style="fill:none;fill-opacity:0;stroke:#840000;stroke-width:60;stroke-linecap:round;stroke-linejoin:round;stroke-opacity:1"
         d="M 41500,30000 V 29000"
         id="path6782" />
      <path
         style="fill:none;fill-opacity:0;stroke:#840000;stroke-width:60;stroke-linecap:round;stroke-linejoin:round;stroke-opacity:1"
         d="m 41500,29000 300,500"
         id="path6784" />
    </g>
    <g
       style="fill:#006464;fill-opacity:0;stroke:#006464;stroke-width:60;stroke-linecap:round;stroke-linejoin:round;stroke-opacity:1"
       id="g6802">
      <text
         x="41650"
         y="28519.961"
         textLength="1583.8188"
         font-size="666.654px"
         lengthAdjust="spacingAndGlyphs"
         text-anchor="middle"
         opacity="0"
         id="text6788">+5V</text>
      <g
         class="stroked-text"
         id="g6800">
        <desc
           id="desc6790">+5V</desc>
        <path
           d="m 41007,28305 h 381"
           id="path6792" />
        <path
           d="m 41197,28496 v -381"
           id="path6794" />
        <path
           d="m 41864,27996 h -238 l -24,238 24,-24 47,-24 h 119 l 48,24 24,24 24,47 v 119 l -24,48 -24,24 -48,24 h -119 l -47,-24 -24,-24"
           id="path6796" />
        <path
           d="m 42030,27996 167,500 167,-500"
           id="path6798" />
      </g>
    </g>
  </g>
  <g
     style="fill:#006464;fill-opacity:0;stroke:#006464;stroke-width:60;stroke-linecap:round;stroke-linejoin:round;stroke-opacity:1"
     id="g6936"
     transform="translate(-27868.263,-27098.843)">
    <g
       id="g6806" />
    <g
       style="fill:#840000;fill-opacity:0;stroke:#840000;stroke-width:60;stroke-linecap:round;stroke-linejoin:round;stroke-opacity:1"
       id="g6810">
      <path
         style="fill:none;fill-opacity:0;stroke:#840000;stroke-width:60;stroke-linecap:round;stroke-linejoin:round;stroke-opacity:1"
         d="M 40600,42000 H 39500"
         id="path6808" />
    </g>
    <g
       style="fill:#840000;fill-opacity:0;stroke:#840000;stroke-width:100;stroke-linecap:round;stroke-linejoin:round;stroke-opacity:1"
       id="g6820">
      <path
         style="fill:none;fill-opacity:0;stroke:#840000;stroke-width:100;stroke-linecap:round;stroke-linejoin:round;stroke-opacity:1"
         d="m 40600,41250 v 1500"
         id="path6812" />
      <path
         style="fill:none;fill-opacity:0;stroke:#840000;stroke-width:100;stroke-linecap:round;stroke-linejoin:round;stroke-opacity:1"
         d="m 40800,42500 v 400"
         id="path6814" />
      <path
         style="fill:none;fill-opacity:0;stroke:#840000;stroke-width:100;stroke-linecap:round;stroke-linejoin:round;stroke-opacity:1"
         d="m 40800,41800 v 400"
         id="path6816" />
      <path
         style="fill:none;fill-opacity:0;stroke:#840000;stroke-width:100;stroke-linecap:round;stroke-linejoin:round;stroke-opacity:1"
         d="m 40800,41100 v 400"
         id="path6818" />
    </g>
    <g
       style="fill:#840000;fill-opacity:0;stroke:#840000;stroke-width:60;stroke-linecap:round;stroke-linejoin:round;stroke-opacity:1"
       id="g6828">
      <path
         style="fill:none;fill-opacity:0;stroke:#840000;stroke-width:60;stroke-linecap:round;stroke-linejoin:round;stroke-opacity:1"
         d="m 41500,41000 v 300"
         id="path6822" />
      <path
         style="fill:none;fill-opacity:0;stroke:#840000;stroke-width:60;stroke-linecap:round;stroke-linejoin:round;stroke-opacity:1"
         d="m 41500,43000 v -1000 h -700"
         id="path6824" />
      <path
         style="fill:none;fill-opacity:0;stroke:#840000;stroke-width:60;stroke-linecap:round;stroke-linejoin:round;stroke-opacity:1"
         d="m 40800,42700 h 1000 v -1400 h -1000"
         id="path6826" />
    </g>
    <g
       style="fill:#840000;fill-opacity:1;stroke:#840000;stroke-width:60;stroke-linecap:round;stroke-linejoin:round;stroke-opacity:1"
       id="g6832">
      <path
         style="fill:#840000;fill-opacity:1;fill-rule:evenodd;stroke:#840000;stroke-width:60;stroke-linecap:round;stroke-linejoin:round;stroke-opacity:1"
         d="m 40900,42000 400,-150 v 300 z"
         id="path6830" />
    </g>
    <g
       style="fill:#840000;fill-opacity:0;stroke:#840000;stroke-width:60;stroke-linecap:round;stroke-linejoin:round;stroke-opacity:1"
       id="g6838">
      <path
         style="fill:none;fill-opacity:0;stroke:#840000;stroke-width:60;stroke-linecap:round;stroke-linejoin:round;stroke-opacity:1"
         d="m 41600,41800 50,50 h 300 l 50,50"
         id="path6834" />
      <path
         style="fill:none;fill-opacity:0;stroke:#840000;stroke-width:60;stroke-linecap:round;stroke-linejoin:round;stroke-opacity:1"
         d="m 41800,41850 -150,250 h 300 z"
         id="path6836" />
    </g>
    <g
       style="fill:#840000;fill-opacity:0;stroke:#840000;stroke-width:100;stroke-linecap:round;stroke-linejoin:round;stroke-opacity:1"
       id="g6842">
      <circle
         cx="41150"
         cy="42000"
         r="1100"
         id="circle6840" />
    </g>
    <g
       style="fill:#840000;fill-opacity:1;stroke:#840000;stroke-width:60;stroke-linecap:round;stroke-linejoin:round;stroke-opacity:1"
       id="g6848">
      <circle
         cx="41500"
         cy="42700"
         r="100"
         id="circle6844" />
      <circle
         cx="41500"
         cy="41300"
         r="100"
         id="circle6846" />
    </g>
    <g
       style="fill:#840000;fill-opacity:0;stroke:#840000;stroke-width:60;stroke-linecap:round;stroke-linejoin:round;stroke-opacity:1"
       id="g6852">
      <path
         d="M 39500,42000 H 38500"
         id="path6850" />
    </g>
    <g
       style="fill:#a90000;fill-opacity:0;stroke:#a90000;stroke-width:60;stroke-linecap:round;stroke-linejoin:round;stroke-opacity:1"
       id="g6864">
      <text
         x="39000"
         y="42600"
         textLength="536.18109"
         font-size="666.654px"
         lengthAdjust="spacingAndGlyphs"
         text-anchor="middle"
         opacity="0"
         id="text6854">1</text>
      <g
         class="stroked-text"
         id="g6862">
        <desc
           id="desc6856">1</desc>
        <path
           d="m 39142,42576 h -285"
           id="path6858" />
        <path
           d="m 39000,42576 v -500 l -48,71 -48,48 -47,24"
           id="path6860" />
      </g>
    </g>
    <g
       style="fill:#840000;fill-opacity:0;stroke:#840000;stroke-width:60;stroke-linecap:round;stroke-linejoin:round;stroke-opacity:1"
       id="g6868">
      <path
         d="m 41500,43000 v 1000"
         id="path6866" />
    </g>
    <g
       style="fill:#a90000;fill-opacity:0;stroke:#a90000;stroke-width:60;stroke-linecap:round;stroke-linejoin:round;stroke-opacity:1"
       id="g6880">
      <g
         transform="rotate(-90,41600,43500)"
         id="g6872">
        <text
           x="41600"
           y="44000"
           textLength="536.18109"
           font-size="666.654px"
           lengthAdjust="spacingAndGlyphs"
           text-anchor="middle"
           opacity="0"
           id="text6870">2</text>
      </g>
      <g
         class="stroked-text"
         id="g6878">
        <desc
           id="desc6874">2</desc>
        <path
           d="m 41623,43642 -23,-23 -24,-48 v -119 l 24,-48 23,-24 48,-23 h 48 l 71,23 286,286 v -309"
           id="path6876" />
      </g>
    </g>
    <g
       style="fill:#840000;fill-opacity:0;stroke:#840000;stroke-width:60;stroke-linecap:round;stroke-linejoin:round;stroke-opacity:1"
       id="g6884">
      <path
         d="M 41500,41000 V 40000"
         id="path6882" />
    </g>
    <g
       style="fill:#a90000;fill-opacity:0;stroke:#a90000;stroke-width:60;stroke-linecap:round;stroke-linejoin:round;stroke-opacity:1"
       id="g6896">
      <g
         transform="rotate(-90,41600,40500)"
         id="g6888">
        <text
           x="41600"
           y="41000"
           textLength="536.18109"
           font-size="666.654px"
           lengthAdjust="spacingAndGlyphs"
           text-anchor="middle"
           opacity="0"
           id="text6886">3</text>
      </g>
      <g
         class="stroked-text"
         id="g6894">
        <desc
           id="desc6890">3</desc>
        <path
           d="m 41576,40666 v -309 l 190,166 v -71 l 24,-48 24,-24 47,-23 h 119 l 48,23 24,24 24,48 v 143 l -24,47 -24,24"
           id="path6892" />
      </g>
    </g>
    <g
       style="fill:#006464;fill-opacity:0;stroke:#006464;stroke-width:60;stroke-linecap:round;stroke-linejoin:round;stroke-opacity:1"
       id="g6934">
      <text
         x="43547.441"
         y="41789.961"
         textLength="2012.3622"
         font-size="666.654px"
         lengthAdjust="spacingAndGlyphs"
         text-anchor="middle"
         opacity="0"
         id="text6898">Q428</text>
      <g
         class="stroked-text"
         id="g6914">
        <desc
           id="desc6900">Q428</desc>
        <path
           d="m 43023,41813 -48,-24 -47,-47 -72,-72 -47,-23 h -48"
           id="path6902" />
        <path
           d="m 42785,41766 -48,-24 -47,-48 -24,-95 v -167 l 24,-95 47,-48 48,-23 h 95 l 48,23 47,48 24,95 v 167 l -24,95 -47,48 -48,24 h -95"
           id="path6904" />
        <path
           d="m 43428,41432 v 334"
           id="path6906" />
        <path
           d="m 43309,41242 -119,357 h 309"
           id="path6908" />
        <path
           d="m 43666,41313 24,-24 47,-23 h 119 l 48,23 24,24 24,48 v 47 l -24,72 -286,286 h 310"
           id="path6910" />
        <path
           d="m 44237,41480 -47,-24 -24,-24 -24,-47 v -24 l 24,-48 24,-24 47,-23 h 96 l 47,23 24,24 24,48 v 24 l -24,47 -24,24 -47,24 h -96 l -47,24 -24,24 -24,47 v 95 l 24,48 24,24 47,24 h 96 l 47,-24 24,-24 24,-48 v -95 l -24,-47 -24,-24 -47,-24"
           id="path6912" />
      </g>
      <text
         x="44023.621"
         y="42699.961"
         textLength="2964.7637"
         font-size="666.654px"
         lengthAdjust="spacingAndGlyphs"
         text-anchor="middle"
         opacity="0"
         id="text6916">2N7002</text>
      <g
         class="stroked-text"
         id="g6932">
        <desc
           id="desc6918">2N7002</desc>
        <path
           d="m 42666,42223 24,-24 47,-23 h 119 l 48,23 24,24 24,48 v 47 l -24,72 -286,286 h 310"
           id="path6920" />
        <path
           d="m 43166,42676 v -500 l 286,500 v -500"
           id="path6922" />
        <path
           d="m 43642,42176 h 333 l -214,500"
           id="path6924" />
        <path
           d="m 44261,42176 h 48 l 47,23 24,24 24,48 24,95 v 119 l -24,95 -24,48 -24,24 -47,24 h -48 l -47,-24 -24,-24 -24,-48 -24,-95 v -119 l 24,-95 24,-48 24,-24 47,-23"
           id="path6926" />
        <path
           d="m 44737,42176 h 48 l 48,23 23,24 24,48 24,95 v 119 l -24,95 -24,48 -23,24 -48,24 h -48 l -47,-24 -24,-24 -24,-48 -24,-95 v -119 l 24,-95 24,-48 24,-24 47,-23"
           id="path6928" />
        <path
           d="m 45095,42223 23,-24 48,-23 h 119 l 48,23 23,24 24,48 v 47 l -24,72 -285,286 h 309"
           id="path6930" />
      </g>
    </g>
  </g>
  <g
     style="fill:#006464;fill-opacity:0;stroke:#006464;stroke-width:60;stroke-linecap:round;stroke-linejoin:round;stroke-opacity:1"
     id="g6958"
     transform="translate(-27868.263,-27098.843)">
    <g
       id="g6938" />
    <g
       style="fill:#840000;fill-opacity:0;stroke:#840000;stroke-width:60;stroke-linecap:round;stroke-linejoin:round;stroke-opacity:1"
       id="g6942">
      <path
         style="fill:none;fill-opacity:0;stroke:#840000;stroke-width:60;stroke-linecap:round;stroke-linejoin:round;stroke-opacity:1"
         d="m 41500,46000 v 500 h 500 l -500,500 -500,-500 h 500"
         id="path6940" />
    </g>
    <g
       style="fill:#006464;fill-opacity:0;stroke:#006464;stroke-width:60;stroke-linecap:round;stroke-linejoin:round;stroke-opacity:1"
       id="g6956">
      <text
         x="41550"
         y="47979.961"
         textLength="1583.8188"
         font-size="666.654px"
         lengthAdjust="spacingAndGlyphs"
         text-anchor="middle"
         opacity="0"
         id="text6944">GND</text>
      <g
         class="stroked-text"
         id="g6954">
        <desc
           id="desc6946">GND</desc>
        <path
           d="m 41169,47479 -48,-23 h -71 l -72,23 -48,48 -23,48 -24,95 v 71 l 24,96 23,47 48,48 72,24 h 47 l 72,-24 23,-24 v -167 h -95"
           id="path6948" />
        <path
           d="m 41407,47956 v -500 l 285,500 v -500"
           id="path6950" />
        <path
           d="m 41930,47956 v -500 h 120 l 71,23 48,48 23,48 24,95 v 71 l -24,96 -23,47 -48,48 -71,24 h -120"
           id="path6952" />
      </g>
    </g>
  </g>
  <g
     style="fill:#006464;fill-opacity:0;stroke:#006464;stroke-width:62.5197;stroke-linecap:round;stroke-linejoin:round;stroke-opacity:1"
     id="g6960"
     transform="translate(-27868.263,-27098.843)" />
  <g
     style="fill:#006464;fill-opacity:0;stroke:#006464;stroke-width:60;stroke-linecap:round;stroke-linejoin:round;stroke-opacity:1"
     id="g6962"
     transform="translate(-27868.263,-27098.843)" />
  <g
     style="fill:#725600;fill-opacity:0;stroke:#725600;stroke-width:60;stroke-linecap:round;stroke-linejoin:round;stroke-opacity:1"
     id="g6976"
     transform="translate(-27868.263,-27098.843)">
    <text
       x="52040"
       y="37750"
       textLength="583.81891"
       font-size="666.654px"
       lengthAdjust="spacingAndGlyphs"
       text-anchor="start"
       opacity="0"
       id="text6964">Q</text>
    <g
       class="stroked-text"
       id="g6972">
      <desc
         id="desc6966">Q</desc>
      <path
         d="m 52522,37773 -48,-23 -47,-48 -72,-72 -47,-23 h -48"
         id="path6968" />
      <path
         d="m 52284,37726 -48,-24 -47,-48 -24,-95 v -167 l 24,-95 47,-47 48,-24 h 95 l 48,24 47,47 24,95 v 167 l -24,95 -47,48 -48,24 h -95"
         id="path6970" />
    </g>
    <path
       style="fill:none;fill-opacity:0;stroke:#725600;stroke-width:60;stroke-linecap:round;stroke-linejoin:round;stroke-opacity:1"
       d="m 52000,37500 -250,-250 h -250 v 500 h 250 z"
       id="path6974" />
  </g>
  <g
     style="fill:#725600;fill-opacity:0;stroke:#725600;stroke-width:62.5197;stroke-linecap:round;stroke-linejoin:round;stroke-opacity:1"
     id="g6978"
     transform="translate(-27868.263,-27098.843)" />
  <g
     style="fill:#725600;fill-opacity:0;stroke:#725600;stroke-width:60;stroke-linecap:round;stroke-linejoin:round;stroke-opacity:1"
     id="g6992"
     transform="translate(-27868.263,-27098.843)">
    <text
       x="29960"
       y="37750"
       textLength="488.58267"
       font-size="666.654px"
       lengthAdjust="spacingAndGlyphs"
       text-anchor="end"
       opacity="0"
       id="text6980">A</text>
    <g
       class="stroked-text"
       id="g6988">
      <desc
         id="desc6982">A</desc>
      <path
         d="m 29596,37583 h 238"
         id="path6984" />
      <path
         d="m 29549,37726 166,-500 167,500"
         id="path6986" />
    </g>
    <path
       style="fill:none;fill-opacity:0;stroke:#725600;stroke-width:60;stroke-linecap:round;stroke-linejoin:round;stroke-opacity:1"
       d="m 30500,37500 -250,-250 h -250 v 500 h 250 z"
       id="path6990" />
  </g>
  <g
     style="fill:#009600;fill-opacity:0;stroke:#009600;stroke-width:60;stroke-linecap:round;stroke-linejoin:round;stroke-opacity:1"
     id="g7014"
     transform="translate(-27868.263,-27098.843)">
    <path
       d="M 41500,37500 H 51500"
       id="path6994" />
    <path
       d="m 41500,37500 v 2500"
       id="path6996" />
    <path
       d="m 41500,35500 v 2000"
       id="path6998" />
    <path
       d="m 41500,30000 v 1500"
       id="path7000" />
    <path
       d="M 38500,33500 H 36500"
       id="path7002" />
    <path
       d="m 36500,33500 v 4000"
       id="path7004" />
    <path
       d="m 30500,37500 h 6000"
       id="path7006" />
    <path
       d="m 36500,37500 v 4500"
       id="path7008" />
    <path
       d="m 36500,42000 h 2000"
       id="path7010" />
    <path
       d="m 41500,44000 v 2000"
       id="path7012" />
  </g>
  <g
     style="fill:#009600;fill-opacity:1;stroke:#009600;stroke-width:60;stroke-linecap:round;stroke-linejoin:round;stroke-opacity:1"
     id="g7020"
     transform="translate(-27868.263,-27098.843)">
    <circle
       cx="41500"
       cy="37500"
       r="180"
       id="circle7016" />
    <circle
       cx="36500"
       cy="37500"
       r="180"
       id="circle7018" />
  </g>
  <metadata
     id="metadata7028">
    <rdf:RDF>
      <cc:Work
         rdf:about="">
        <dc:title>SVG Picture created as FetsAndCrosses-EndState_Detect-sheet5ED298A3-sheet5ED2645B.svg date 2023/03/15 13:41:54 </dc:title>
      </cc:Work>
    </rdf:RDF>
  </metadata>
</svg>
