<?xml version="1.0" encoding="UTF-8" standalone="no"?>
<svg
   version="1.1"
   width="6.8114939cm"
   height="3.1938393cm"
   viewBox="0 0 26816.905 12574.171"
   id="svg9191"
   xmlns="http://www.w3.org/2000/svg"
   xmlns:svg="http://www.w3.org/2000/svg"
   xmlns:rdf="http://www.w3.org/1999/02/22-rdf-syntax-ns#"
   xmlns:cc="http://creativecommons.org/ns#"
   xmlns:dc="http://purl.org/dc/elements/1.1/">
  <defs
     id="defs9195" />
  <title
     id="title7729">SVG Picture created as FetsAndCrosses-StateMaschine-sheet5F23319C.svg date 2023/03/15 13:42:19 </title>
  <desc
     id="desc7731">Picture generated by Eeschema-SVG </desc>
  <rect
     style="fill:#ffffff;stroke-width:90.6939"
     id="rect9368"
     width="26816.906"
     height="12574.171"
     x="-3.6379788e-12"
     y="-7.2759576e-12" />
  <g
     style="fill:#000000;fill-opacity:1;stroke:#000000;stroke-linecap:round;stroke-linejoin:round;stroke-opacity:1"
     id="g7733"
     transform="translate(-30418.77,-41110.801)" />
  <g
     style="fill:#840000;fill-opacity:0;stroke:#840000;stroke-width:0;stroke-linecap:round;stroke-linejoin:round;stroke-opacity:1"
     id="g7735"
     transform="translate(-30418.77,-41110.801)" />
  <g
     style="fill:#ffffff;fill-opacity:0;stroke:#ffffff;stroke-width:60;stroke-linecap:round;stroke-linejoin:round;stroke-opacity:1"
     id="g8819"
     transform="translate(-30418.77,-41110.801)" />
  <g
     style="fill:#ffffff;fill-opacity:1;stroke:#ffffff;stroke-width:0.03937;stroke-linecap:round;stroke-linejoin:round;stroke-opacity:1"
     id="g8823"
     transform="translate(-30418.77,-41110.801)">
    <rect
       x="35500"
       y="45500"
       width="5500"
       height="3000"
       rx="0.000000"
       id="rect8821" />
  </g>
  <g
     style="fill:#840000;fill-opacity:1;stroke:#840000;stroke-width:0.03937;stroke-linecap:round;stroke-linejoin:round;stroke-opacity:1"
     id="g8825"
     transform="translate(-30418.77,-41110.801)" />
  <g
     style="fill:#840000;fill-opacity:0;stroke:#840000;stroke-width:60;stroke-linecap:round;stroke-linejoin:round;stroke-opacity:1"
     id="g8829"
     transform="translate(-30418.77,-41110.801)">
    <rect
       x="35500"
       y="45500"
       width="5500"
       height="3000"
       rx="0.000000"
       id="rect8827" />
  </g>
  <g
     style="fill:#006464;fill-opacity:0;stroke:#006464;stroke-width:60;stroke-linecap:round;stroke-linejoin:round;stroke-opacity:1"
     id="g8905"
     transform="translate(-30418.77,-41110.801)">
    <text
       x="40460"
       y="47250"
       textLength="583.81891"
       font-size="666.654px"
       lengthAdjust="spacingAndGlyphs"
       text-anchor="end"
       opacity="0"
       id="text8831">Q</text>
    <g
       class="stroked-text"
       id="g8839">
      <desc
         id="desc8833">Q</desc>
      <path
         d="m 40358,47273 -48,-23 -47,-48 -72,-72 -47,-23 h -48"
         id="path8835" />
      <path
         d="m 40120,47226 -48,-24 -47,-48 -24,-95 v -167 l 24,-95 47,-47 48,-24 h 95 l 48,24 47,47 24,95 v 167 l -24,95 -47,48 -48,24 h -95"
         id="path8837" />
    </g>
    <path
       style="fill:none;fill-opacity:0;stroke:#006464;stroke-width:60;stroke-linecap:round;stroke-linejoin:round;stroke-opacity:1"
       d="m 41000,47000 -250,-250 h -250 v 500 h 250 z"
       id="path8841" />
    <text
       x="36040"
       y="46750"
       textLength="488.58267"
       font-size="666.654px"
       lengthAdjust="spacingAndGlyphs"
       text-anchor="start"
       opacity="0"
       id="text8843">A</text>
    <g
       class="stroked-text"
       id="g8851">
      <desc
         id="desc8845">A</desc>
      <path
         d="m 36165,46583 h 238"
         id="path8847" />
      <path
         d="m 36117,46726 167,-500 166,500"
         id="path8849" />
    </g>
    <path
       style="fill:none;fill-opacity:0;stroke:#006464;stroke-width:60;stroke-linecap:round;stroke-linejoin:round;stroke-opacity:1"
       d="m 36000,46500 -250,-250 h -250 v 500 h 250 z"
       id="path8853" />
    <text
       x="36040"
       y="47750"
       textLength="560"
       font-size="666.654px"
       lengthAdjust="spacingAndGlyphs"
       text-anchor="start"
       opacity="0"
       id="text8855">B</text>
    <g
       class="stroked-text"
       id="g8861">
      <desc
         id="desc8857">B</desc>
      <path
         d="m 36355,47464 72,24 23,23 24,48 v 71 l -24,48 -23,24 -48,24 h -190 v -500 h 166 l 48,24 24,23 23,48 v 48 l -23,47 -24,24 -48,24 h -166"
         id="path8859" />
    </g>
    <path
       style="fill:none;fill-opacity:0;stroke:#006464;stroke-width:60;stroke-linecap:round;stroke-linejoin:round;stroke-opacity:1"
       d="m 36000,47500 -250,-250 h -250 v 500 h 250 z"
       id="path8863" />
    <text
       x="38424.094"
       y="45067.324"
       textLength="5845.7085"
       font-size="666.654px"
       lengthAdjust="spacingAndGlyphs"
       text-anchor="middle"
       opacity="0"
       id="text8865">sheet5E561707</text>
    <g
       class="stroked-text"
       id="g8903">
      <desc
         id="desc8867">sheet5E561707</desc>
      <path
         d="m 35626,45019 48,24 h 95 l 47,-24 24,-47 v -24 l -24,-48 -47,-24 h -72 l -47,-23 -24,-48 v -24 l 24,-48 47,-23 h 72 l 47,23"
         id="path8869" />
      <path
         d="m 36055,45043 v -500"
         id="path8871" />
      <path
         d="m 36269,45043 v -262 l -24,-48 -48,-23 h -71 l -48,23 -23,24"
         id="path8873" />
      <path
         d="m 36697,45019 -47,24 h -95 l -48,-24 -24,-47 v -191 l 24,-48 48,-23 h 95 l 47,23 24,48 v 48 l -238,47"
         id="path8875" />
      <path
         d="m 37126,45019 -48,24 h -95 l -48,-24 -23,-47 v -191 l 23,-48 48,-23 h 95 l 48,23 24,48 v 48 l -238,47"
         id="path8877" />
      <path
         d="m 37293,44710 h 190"
         id="path8879" />
      <path
         d="m 37364,44543 v 429 l 24,47 47,24 h 48"
         id="path8881" />
      <path
         d="m 37888,44543 h -238 l -24,238 24,-24 47,-24 h 119 l 48,24 24,24 24,48 v 119 l -24,47 -24,24 -48,24 h -119 l -47,-24 -24,-24"
         id="path8883" />
      <path
         d="m 38126,44781 h 167"
         id="path8885" />
      <path
         d="m 38364,45043 h -238 v -500 h 238"
         id="path8887" />
      <path
         d="m 38816,44543 h -238 l -23,238 23,-24 48,-24 h 119 l 48,24 23,24 24,48 v 119 l -24,47 -23,24 -48,24 h -119 l -48,-24 -23,-24"
         id="path8889" />
      <path
         d="m 39269,44543 h -95 l -48,24 -24,24 -47,71 -24,95 v 191 l 24,47 23,24 48,24 h 95 l 48,-24 24,-24 23,-47 v -119 l -23,-48 -24,-24 -48,-24 h -95 l -48,24 -23,24 -24,48"
         id="path8891" />
      <path
         d="m 39793,45043 h -286"
         id="path8893" />
      <path
         d="m 39650,45043 v -500 l -48,71 -47,48 -48,24"
         id="path8895" />
      <path
         d="m 39959,44543 h 334 l -215,500"
         id="path8897" />
      <path
         d="m 40578,44543 h 48 l 48,24 23,24 24,47 24,95 v 120 l -24,95 -24,47 -23,24 -48,24 h -48 l -47,-24 -24,-24 -24,-47 -24,-95 v -120 l 24,-95 24,-47 24,-24 47,-24"
         id="path8899" />
      <path
         d="m 40912,44543 h 333 l -214,500"
         id="path8901" />
    </g>
  </g>
  <g
     style="fill:#725600;fill-opacity:0;stroke:#725600;stroke-width:60;stroke-linecap:round;stroke-linejoin:round;stroke-opacity:1"
     id="g8973"
     transform="translate(-30418.77,-41110.801)">
    <text
       x="39876.496"
       y="49382.637"
       textLength="8750.4727"
       font-size="666.654px"
       lengthAdjust="spacingAndGlyphs"
       text-anchor="middle"
       opacity="0"
       id="text8907">File: Gate_NAND2in.sch</text>
    <g
       class="stroked-text"
       id="g8971">
      <desc
         id="desc8909">File: Gate_NAND2in.sch</desc>
      <path
         d="m 35816,49096 h -166"
         id="path8911" />
      <path
         d="m 35650,49358 v -500 h 238"
         id="path8913" />
      <path
         d="m 36078,49358 v -333"
         id="path8915" />
      <path
         d="m 36078,48858 -23,24 23,24 24,-24 -24,-24 v 48"
         id="path8917" />
      <path
         d="m 36388,49358 -48,-23 -24,-48 v -429"
         id="path8919" />
      <path
         d="m 36769,49335 -48,23 h -95 l -48,-23 -23,-48 v -191 l 23,-47 48,-24 h 95 l 48,24 24,47 v 48 l -238,48"
         id="path8921" />
      <path
         d="m 37007,49311 24,24 -24,23 -24,-23 24,-24 v 47"
         id="path8923" />
      <path
         d="m 37007,49049 24,24 -24,23 -24,-23 24,-24 v 47"
         id="path8925" />
      <path
         d="m 37888,48882 -48,-24 h -71 l -72,24 -47,48 -24,47 -24,96 v 71 l 24,95 24,48 47,48 72,23 h 47 l 72,-23 24,-24 v -167 h -96"
         id="path8927" />
      <path
         d="m 38340,49358 v -262 l -24,-47 -47,-24 h -95 l -48,24"
         id="path8929" />
      <path
         d="m 38340,49335 -47,23 h -119 l -48,-23 -24,-48 v -48 l 24,-47 48,-24 h 119 l 47,-24"
         id="path8931" />
      <path
         d="m 38507,49025 h 190"
         id="path8933" />
      <path
         d="m 38578,48858 v 429 l 24,48 48,23 h 47"
         id="path8935" />
      <path
         d="m 39055,49335 -48,23 h -95 l -48,-23 -24,-48 v -191 l 24,-47 48,-24 h 95 l 48,24 23,47 v 48 l -238,48"
         id="path8937" />
      <path
         d="m 39174,49406 h 381"
         id="path8939" />
      <path
         d="m 39674,49358 v -500 l 285,500 v -500"
         id="path8941" />
      <path
         d="m 40174,49215 h 238"
         id="path8943" />
      <path
         d="m 40126,49358 167,-500 166,500"
         id="path8945" />
      <path
         d="m 40626,49358 v -500 l 286,500 v -500"
         id="path8947" />
      <path
         d="m 41150,49358 v -500 h 119 l 71,24 48,48 24,47 23,96 v 71 l -23,95 -24,48 -48,48 -71,23 h -119"
         id="path8949" />
      <path
         d="m 41626,48906 24,-24 47,-24 h 119 l 48,24 24,24 24,48 v 47 l -24,72 -286,285 h 310"
         id="path8951" />
      <path
         d="m 42126,49358 v -333"
         id="path8953" />
      <path
         d="m 42126,48858 -24,24 24,24 24,-24 -24,-24 v 48"
         id="path8955" />
      <path
         d="m 42364,49025 v 333"
         id="path8957" />
      <path
         d="m 42364,49073 24,-24 47,-24 h 72 l 48,24 23,47 v 262"
         id="path8959" />
      <path
         d="m 42816,49311 24,24 -24,23 -23,-23 23,-24 v 47"
         id="path8961" />
      <path
         d="m 43031,49335 47,23 h 96 l 47,-23 24,-48 v -24 l -24,-48 -47,-23 h -72 l -47,-24 -24,-48 v -24 l 24,-47 47,-24 h 72 l 47,24"
         id="path8963" />
      <path
         d="m 43674,49335 -48,23 h -95 l -48,-23 -24,-24 -24,-48 v -143 l 24,-47 24,-24 48,-24 h 95 l 48,24"
         id="path8965" />
      <path
         d="m 43888,49358 v -500"
         id="path8967" />
      <path
         d="m 44102,49358 v -262 l -24,-47 -47,-24 h -72 l -47,24 -24,24"
         id="path8969" />
    </g>
  </g>
  <g
     style="fill:#ffffff;fill-opacity:0;stroke:#ffffff;stroke-width:60;stroke-linecap:round;stroke-linejoin:round;stroke-opacity:1"
     id="g8975"
     transform="translate(-30418.77,-41110.801)" />
  <g
     style="fill:#ffffff;fill-opacity:1;stroke:#ffffff;stroke-width:0.03937;stroke-linecap:round;stroke-linejoin:round;stroke-opacity:1"
     id="g8979"
     transform="translate(-30418.77,-41110.801)">
    <rect
       x="45500"
       y="46000"
       width="5500"
       height="2000"
       rx="0.000000"
       id="rect8977" />
  </g>
  <g
     style="fill:#840000;fill-opacity:1;stroke:#840000;stroke-width:0.03937;stroke-linecap:round;stroke-linejoin:round;stroke-opacity:1"
     id="g8981"
     transform="translate(-30418.77,-41110.801)" />
  <g
     style="fill:#840000;fill-opacity:0;stroke:#840000;stroke-width:60;stroke-linecap:round;stroke-linejoin:round;stroke-opacity:1"
     id="g8985"
     transform="translate(-30418.77,-41110.801)">
    <rect
       x="45500"
       y="46000"
       width="5500"
       height="2000"
       rx="0.000000"
       id="rect8983" />
  </g>
  <g
     style="fill:#006464;fill-opacity:0;stroke:#006464;stroke-width:60;stroke-linecap:round;stroke-linejoin:round;stroke-opacity:1"
     id="g9051"
     transform="translate(-30418.77,-41110.801)">
    <text
       x="46040"
       y="47250"
       textLength="488.58267"
       font-size="666.654px"
       lengthAdjust="spacingAndGlyphs"
       text-anchor="start"
       opacity="0"
       id="text8987">A</text>
    <g
       class="stroked-text"
       id="g8995">
      <desc
         id="desc8989">A</desc>
      <path
         d="m 46165,47083 h 238"
         id="path8991" />
      <path
         d="m 46117,47226 167,-500 166,500"
         id="path8993" />
    </g>
    <path
       style="fill:none;fill-opacity:0;stroke:#006464;stroke-width:60;stroke-linecap:round;stroke-linejoin:round;stroke-opacity:1"
       d="m 46000,47000 -250,-250 h -250 v 500 h 250 z"
       id="path8997" />
    <text
       x="50460"
       y="47250"
       textLength="583.81891"
       font-size="666.654px"
       lengthAdjust="spacingAndGlyphs"
       text-anchor="end"
       opacity="0"
       id="text8999">Q</text>
    <g
       class="stroked-text"
       id="g9007">
      <desc
         id="desc9001">Q</desc>
      <path
         d="m 50358,47273 -48,-23 -47,-48 -72,-72 -47,-23 h -48"
         id="path9003" />
      <path
         d="m 50120,47226 -48,-24 -47,-48 -24,-95 v -167 l 24,-95 47,-47 48,-24 h 95 l 48,24 47,47 24,95 v 167 l -24,95 -47,48 -48,24 h -95"
         id="path9005" />
    </g>
    <path
       style="fill:none;fill-opacity:0;stroke:#006464;stroke-width:60;stroke-linecap:round;stroke-linejoin:round;stroke-opacity:1"
       d="m 51000,47000 -250,-250 h -250 v 500 h 250 z"
       id="path9009" />
    <text
       x="48424.094"
       y="45567.324"
       textLength="5845.7085"
       font-size="666.654px"
       lengthAdjust="spacingAndGlyphs"
       text-anchor="middle"
       opacity="0"
       id="text9011">sheet5E561706</text>
    <g
       class="stroked-text"
       id="g9049">
      <desc
         id="desc9013">sheet5E561706</desc>
      <path
         d="m 45626,45519 48,24 h 95 l 47,-24 24,-47 v -24 l -24,-48 -47,-24 h -72 l -47,-23 -24,-48 v -24 l 24,-48 47,-23 h 72 l 47,23"
         id="path9015" />
      <path
         d="m 46055,45543 v -500"
         id="path9017" />
      <path
         d="m 46269,45543 v -262 l -24,-48 -48,-23 h -71 l -48,23 -23,24"
         id="path9019" />
      <path
         d="m 46697,45519 -47,24 h -95 l -48,-24 -24,-47 v -191 l 24,-48 48,-23 h 95 l 47,23 24,48 v 48 l -238,47"
         id="path9021" />
      <path
         d="m 47126,45519 -48,24 h -95 l -48,-24 -23,-47 v -191 l 23,-48 48,-23 h 95 l 48,23 24,48 v 48 l -238,47"
         id="path9023" />
      <path
         d="m 47293,45210 h 190"
         id="path9025" />
      <path
         d="m 47364,45043 v 429 l 24,47 47,24 h 48"
         id="path9027" />
      <path
         d="m 47888,45043 h -238 l -24,238 24,-24 47,-24 h 119 l 48,24 24,24 24,48 v 119 l -24,47 -24,24 -48,24 h -119 l -47,-24 -24,-24"
         id="path9029" />
      <path
         d="m 48126,45281 h 167"
         id="path9031" />
      <path
         d="m 48364,45543 h -238 v -500 h 238"
         id="path9033" />
      <path
         d="m 48816,45043 h -238 l -23,238 23,-24 48,-24 h 119 l 48,24 23,24 24,48 v 119 l -24,47 -23,24 -48,24 h -119 l -48,-24 -23,-24"
         id="path9035" />
      <path
         d="m 49269,45043 h -95 l -48,24 -24,24 -47,71 -24,95 v 191 l 24,47 23,24 48,24 h 95 l 48,-24 24,-24 23,-47 v -119 l -23,-48 -24,-24 -48,-24 h -95 l -48,24 -23,24 -24,48"
         id="path9037" />
      <path
         d="m 49793,45543 h -286"
         id="path9039" />
      <path
         d="m 49650,45543 v -500 l -48,71 -47,48 -48,24"
         id="path9041" />
      <path
         d="m 49959,45043 h 334 l -215,500"
         id="path9043" />
      <path
         d="m 50578,45043 h 48 l 48,24 23,24 24,47 24,95 v 120 l -24,95 -24,47 -23,24 -48,24 h -48 l -47,-24 -24,-24 -24,-47 -24,-95 v -120 l 24,-95 24,-47 24,-24 47,-24"
         id="path9045" />
      <path
         d="m 51174,45043 h -96 l -47,24 -24,24 -48,71 -24,95 v 191 l 24,47 24,24 48,24 h 95 l 48,-24 23,-24 24,-47 v -119 l -24,-48 -23,-24 -48,-24 h -95 l -48,24 -24,24 -24,48"
         id="path9047" />
    </g>
  </g>
  <g
     style="fill:#725600;fill-opacity:0;stroke:#725600;stroke-width:60;stroke-linecap:round;stroke-linejoin:round;stroke-opacity:1"
     id="g9107"
     transform="translate(-30418.77,-41110.801)">
    <text
       x="49019.332"
       y="48882.637"
       textLength="7036.1812"
       font-size="666.654px"
       lengthAdjust="spacingAndGlyphs"
       text-anchor="middle"
       opacity="0"
       id="text9053">File: Gate_NOT.sch</text>
    <g
       class="stroked-text"
       id="g9105">
      <desc
         id="desc9055">File: Gate_NOT.sch</desc>
      <path
         d="m 45816,48596 h -166"
         id="path9057" />
      <path
         d="m 45650,48858 v -500 h 238"
         id="path9059" />
      <path
         d="m 46078,48858 v -333"
         id="path9061" />
      <path
         d="m 46078,48358 -23,24 23,24 24,-24 -24,-24 v 48"
         id="path9063" />
      <path
         d="m 46388,48858 -48,-23 -24,-48 v -429"
         id="path9065" />
      <path
         d="m 46769,48835 -48,23 h -95 l -48,-23 -23,-48 v -191 l 23,-47 48,-24 h 95 l 48,24 24,47 v 48 l -238,48"
         id="path9067" />
      <path
         d="m 47007,48811 24,24 -24,23 -24,-23 24,-24 v 47"
         id="path9069" />
      <path
         d="m 47007,48549 24,24 -24,23 -24,-23 24,-24 v 47"
         id="path9071" />
      <path
         d="m 47888,48382 -48,-24 h -71 l -72,24 -47,48 -24,47 -24,96 v 71 l 24,95 24,48 47,48 72,23 h 47 l 72,-23 24,-24 v -167 h -96"
         id="path9073" />
      <path
         d="m 48340,48858 v -262 l -24,-47 -47,-24 h -95 l -48,24"
         id="path9075" />
      <path
         d="m 48340,48835 -47,23 h -119 l -48,-23 -24,-48 v -48 l 24,-47 48,-24 h 119 l 47,-24"
         id="path9077" />
      <path
         d="m 48507,48525 h 190"
         id="path9079" />
      <path
         d="m 48578,48358 v 429 l 24,48 48,23 h 47"
         id="path9081" />
      <path
         d="m 49055,48835 -48,23 h -95 l -48,-23 -24,-48 v -191 l 24,-47 48,-24 h 95 l 48,24 23,47 v 48 l -238,48"
         id="path9083" />
      <path
         d="m 49174,48906 h 381"
         id="path9085" />
      <path
         d="m 49674,48858 v -500 l 285,500 v -500"
         id="path9087" />
      <path
         d="m 50293,48358 h 95 l 47,24 48,48 24,95 v 167 l -24,95 -48,48 -47,23 h -95 l -48,-23 -48,-48 -23,-95 v -167 l 23,-95 48,-48 48,-24"
         id="path9089" />
      <path
         d="m 50650,48358 h 285"
         id="path9091" />
      <path
         d="m 50793,48858 v -500"
         id="path9093" />
      <path
         d="m 51102,48811 24,24 -24,23 -24,-23 24,-24 v 47"
         id="path9095" />
      <path
         d="m 51316,48835 48,23 h 95 l 48,-23 24,-48 v -24 l -24,-48 -48,-23 h -71 l -48,-24 -24,-48 v -24 l 24,-47 48,-24 h 71 l 48,24"
         id="path9097" />
      <path
         d="m 51959,48835 -47,23 h -96 l -47,-23 -24,-24 -24,-48 v -143 l 24,-47 24,-24 47,-24 h 96 l 47,24"
         id="path9099" />
      <path
         d="m 52174,48858 v -500"
         id="path9101" />
      <path
         d="m 52388,48858 v -262 l -24,-47 -48,-24 h -71 l -48,24 -23,24"
         id="path9103" />
    </g>
  </g>
  <g
     style="fill:#725600;fill-opacity:0;stroke:#725600;stroke-width:62.5197;stroke-linecap:round;stroke-linejoin:round;stroke-opacity:1"
     id="g9109"
     transform="translate(-30418.77,-41110.801)" />
  <g
     style="fill:#725600;fill-opacity:0;stroke:#725600;stroke-width:60;stroke-linecap:round;stroke-linejoin:round;stroke-opacity:1"
     id="g9123"
     transform="translate(-30418.77,-41110.801)">
    <text
       x="34460"
       y="46750"
       textLength="488.58267"
       font-size="666.654px"
       lengthAdjust="spacingAndGlyphs"
       text-anchor="end"
       opacity="0"
       id="text9111">A</text>
    <g
       class="stroked-text"
       id="g9119">
      <desc
         id="desc9113">A</desc>
      <path
         d="m 34096,46583 h 238"
         id="path9115" />
      <path
         d="m 34049,46726 166,-500 167,500"
         id="path9117" />
    </g>
    <path
       style="fill:none;fill-opacity:0;stroke:#725600;stroke-width:60;stroke-linecap:round;stroke-linejoin:round;stroke-opacity:1"
       d="m 35000,46500 -250,-250 h -250 v 500 h 250 z"
       id="path9121" />
  </g>
  <g
     style="fill:#725600;fill-opacity:0;stroke:#725600;stroke-width:62.5197;stroke-linecap:round;stroke-linejoin:round;stroke-opacity:1"
     id="g9125"
     transform="translate(-30418.77,-41110.801)" />
  <g
     style="fill:#725600;fill-opacity:0;stroke:#725600;stroke-width:60;stroke-linecap:round;stroke-linejoin:round;stroke-opacity:1"
     id="g9137"
     transform="translate(-30418.77,-41110.801)">
    <text
       x="34460"
       y="47750"
       textLength="560"
       font-size="666.654px"
       lengthAdjust="spacingAndGlyphs"
       text-anchor="end"
       opacity="0"
       id="text9127">B</text>
    <g
       class="stroked-text"
       id="g9133">
      <desc
         id="desc9129">B</desc>
      <path
         d="m 34215,47464 72,24 23,23 24,48 v 71 l -24,48 -23,24 -48,24 h -190 v -500 h 166 l 48,24 24,23 23,48 v 48 l -23,47 -24,24 -48,24 h -166"
         id="path9131" />
    </g>
    <path
       style="fill:none;fill-opacity:0;stroke:#725600;stroke-width:60;stroke-linecap:round;stroke-linejoin:round;stroke-opacity:1"
       d="m 35000,47500 -250,-250 h -250 v 500 h 250 z"
       id="path9135" />
  </g>
  <g
     style="fill:#725600;fill-opacity:0;stroke:#725600;stroke-width:62.5197;stroke-linecap:round;stroke-linejoin:round;stroke-opacity:1"
     id="g9139"
     transform="translate(-30418.77,-41110.801)" />
  <g
     style="fill:#725600;fill-opacity:0;stroke:#725600;stroke-width:60;stroke-linecap:round;stroke-linejoin:round;stroke-opacity:1"
     id="g9153"
     transform="translate(-30418.77,-41110.801)">
    <text
       x="53040"
       y="47250"
       textLength="583.81891"
       font-size="666.654px"
       lengthAdjust="spacingAndGlyphs"
       text-anchor="start"
       opacity="0"
       id="text9141">Q</text>
    <g
       class="stroked-text"
       id="g9149">
      <desc
         id="desc9143">Q</desc>
      <path
         d="m 53522,47273 -48,-23 -47,-48 -72,-72 -47,-23 h -48"
         id="path9145" />
      <path
         d="m 53284,47226 -48,-24 -47,-48 -24,-95 v -167 l 24,-95 47,-47 48,-24 h 95 l 48,24 47,47 24,95 v 167 l -24,95 -47,48 -48,24 h -95"
         id="path9147" />
    </g>
    <path
       style="fill:none;fill-opacity:0;stroke:#725600;stroke-width:60;stroke-linecap:round;stroke-linejoin:round;stroke-opacity:1"
       d="m 53000,47000 -250,-250 h -250 v 500 h 250 z"
       id="path9151" />
  </g>
  <g
     style="fill:#725600;fill-opacity:0;stroke:#725600;stroke-width:200;stroke-linecap:round;stroke-linejoin:round;stroke-opacity:1"
     id="g9155"
     transform="translate(-30418.77,-41110.801)" />
  <g
     style="fill:#0000c2;fill-opacity:0;stroke:#0000c2;stroke-width:200;stroke-linecap:round;stroke-linejoin:round;stroke-opacity:1"
     id="g9177"
     transform="translate(-30418.77,-41110.801)">
    <text
       x="48000"
       y="47220"
       textLength="536.18109"
       font-size="1333.31px"
       lengthAdjust="spacingAndGlyphs"
       text-anchor="start"
       opacity="0"
       id="text9157">!</text>
    <g
       class="stroked-text"
       id="g9165">
      <desc
         id="desc9159">!</desc>
      <path
         d="m 48368,47077 47,47 -47,48 -48,-48 48,-47 v 95"
         id="path9161" />
      <path
         d="m 48368,46791 -48,-571 48,-48 47,48 -47,571 v -619"
         id="path9163" />
    </g>
    <text
       x="37500"
       y="47720"
       textLength="1498.1102"
       font-size="1333.31px"
       lengthAdjust="spacingAndGlyphs"
       text-anchor="start"
       opacity="0"
       id="text9167">~{&amp;}</text>
    <g
       class="stroked-text"
       id="g9175">
      <desc
         id="desc9169">~{&amp;}</desc>
      <path
         d="m 37630,46390 h 1238"
         id="path9171" />
      <path
         d="m 38677,47672 h -47 l -96,-48 -143,-143 -238,-285 -95,-143 -48,-143 v -95 l 48,-95 95,-48 h 48 l 95,48 48,95 v 47 l -48,96 -47,47 -286,191 -48,47 -47,96 v 142 l 47,96 48,47 95,48 h 143 l 95,-48 48,-47 143,-191 47,-143 v -95"
         id="path9173" />
    </g>
  </g>
  <g
     style="fill:#0000c2;fill-opacity:0;stroke:#0000c2;stroke-width:60;stroke-linecap:round;stroke-linejoin:round;stroke-opacity:1"
     id="g9179"
     transform="translate(-30418.77,-41110.801)" />
  <g
     style="fill:#009600;fill-opacity:0;stroke:#009600;stroke-width:60;stroke-linecap:round;stroke-linejoin:round;stroke-opacity:1"
     id="g9189"
     transform="translate(-30418.77,-41110.801)">
    <path
       d="m 35000,46500 h 500"
       id="path9181" />
    <path
       d="m 35000,47500 h 500"
       id="path9183" />
    <path
       d="M 45500,47000 H 41000"
       id="path9185" />
    <path
       d="m 51000,47000 h 1500"
       id="path9187" />
  </g>
  <metadata
     id="metadata9197">
    <rdf:RDF>
      <cc:Work
         rdf:about="">
        <dc:title>SVG Picture created as FetsAndCrosses-StateMaschine-sheet5F23319C.svg date 2023/03/15 13:42:19 </dc:title>
      </cc:Work>
    </rdf:RDF>
  </metadata>
</svg>
