<?xml version="1.0" encoding="UTF-8" standalone="no"?>
<svg
   height="448"
   id="Layer_1"
   version="1.1"
   viewBox="0 0 448 448"
   width="448"
   xml:space="preserve"
   sodipodi:docname="icon_email.svg"
   inkscape:version="1.1.1 (3bf5ae0d25, 2021-09-20)"
   xmlns:inkscape="http://www.inkscape.org/namespaces/inkscape"
   xmlns:sodipodi="http://sodipodi.sourceforge.net/DTD/sodipodi-0.dtd"
   xmlns="http://www.w3.org/2000/svg"
   xmlns:svg="http://www.w3.org/2000/svg"><defs
     id="defs9" /><sodipodi:namedview
     id="namedview7"
     pagecolor="#ffffff"
     bordercolor="#999999"
     borderopacity="1"
     inkscape:pageshadow="0"
     inkscape:pageopacity="0"
     inkscape:pagecheckerboard="0"
     showgrid="false"
     fit-margin-top="0"
     fit-margin-left="0"
     fit-margin-right="0"
     fit-margin-bottom="0"
     inkscape:zoom="1.6757812"
     inkscape:cx="223.47786"
     inkscape:cy="224.07459"
     inkscape:window-width="1920"
     inkscape:window-height="1017"
     inkscape:window-x="-8"
     inkscape:window-y="-8"
     inkscape:window-maximized="1"
     inkscape:current-layer="Layer_1" /><g
     id="g4"
     transform="translate(-32,-32)"><path
       d="m 453.8,407.1 c -23.9,25.3 -52.3,43.8 -85.2,55.4 C 335.7,474.2 301,480 264.5,480 229.6,480 197.8,474.5 169.2,463.4 140.6,452.4 116.1,437 95.9,417.3 75.6,397.6 59.9,374 48.7,346.5 37.5,319 32,289 32,256.5 c 0,-32.1 6.1,-61.8 18.3,-89.1 12.2,-27.3 28.8,-51 49.9,-71.1 21.1,-20.1 45.7,-35.8 74,-47.3 28.1,-11.3 58.3,-17 90.3,-17 27.6,0 54.4,4 80.3,12 26,8 49,20.1 69.1,36.1 20.1,16.1 36.1,36.1 48.1,60.2 12,24.1 18,52.4 18,84.9 0,24.1 -3.3,45.4 -10,63.8 -6.7,18.5 -15.6,33.9 -26.8,46.4 -11.2,12.5 -23.9,21.8 -38.3,28 -14.4,6.2 -29.5,9.3 -45.3,9.3 -16.2,0 -29.2,-3.8 -39,-11.4 C 310.9,353.7 306,344 306,332.4 h -3 c -6.1,9.6 -15.4,18.8 -28,27.4 -12.6,8.6 -28,13 -46.3,13 -27.6,0 -48.9,-9 -63.9,-27.1 -15,-18.1 -22.5,-41.5 -22.5,-70.5 0,-16.9 2.8,-33.5 8.5,-50 5.7,-16.5 13.8,-31.1 24.3,-44 10.5,-12.8 23.1,-23.2 37.7,-31 14.6,-7.8 30.8,-11.7 48.7,-11.7 15.4,0 28.4,3.2 39,9.6 10.5,6.4 17.4,14.3 20.7,23.5 h 0.6 l 4.9,-24.1 h 54.2 L 357,261.4 c -0.8,5.6 -1.9,11.8 -3.3,18.7 -1.4,6.8 -2.1,13.2 -2.1,19.3 0,6.8 1.3,12.5 4,17.2 2.6,4.6 7.8,6.9 15.5,6.9 15.8,0 28.9,-8.4 39.3,-25.3 10.3,-16.9 15.5,-39.5 15.5,-68 0,-24.1 -4.1,-45.5 -12.2,-64.1 -8.1,-18.7 -19.4,-34.3 -33.8,-47 -14.4,-12.6 -31.6,-22.2 -51.4,-28.6 -19.9,-6.4 -41.6,-9.6 -65.1,-9.6 -25.6,0 -49,4.5 -70.3,13.5 -21.3,9 -39.5,21.5 -54.5,37.3 -15,15.9 -26.7,34.5 -35,56 -8.4,21.4 -12.6,44.6 -12.6,69.5 0,26.5 4.4,50.4 13.1,71.7 8.7,21.3 21,39.4 36.8,54.5 15.8,15.1 34.7,26.6 56.6,34.6 21.9,8 46.1,12 72.4,12 32.9,0 61.2,-5.2 84.9,-15.7 23.7,-10.4 45.5,-24.9 65.4,-43.4 z M 263.3,188 c -9.7,0 -18.3,2.8 -25.6,8.4 -7.3,5.6 -13.5,12.7 -18.6,21.4 -5.1,8.6 -8.9,18.2 -11.6,28.6 -2.6,10.4 -4,20.5 -4,30.1 0,4.8 0.5,9.9 1.5,15.4 1,5.4 3,10.4 6.1,15.1 3,4.6 7,8.4 11.9,11.4 4.9,3 11.4,4.5 19.5,4.5 11,0 20.3,-2.7 28,-8.1 7.7,-5.4 14,-12.2 18.9,-20.5 4.9,-8.2 8.4,-17.2 10.7,-26.8 2.2,-9.6 3.3,-18.5 3.3,-26.5 0,-6.4 -0.6,-12.7 -1.8,-19 -1.2,-6.2 -3.3,-11.8 -6.4,-16.9 -3,-5 -7.2,-9.1 -12.5,-12.3 -5.2,-3.2 -11.7,-4.8 -19.4,-4.8 z"
       id="path2" /></g></svg>
